# xmcd
#
# Track frame offsets: 
#        150
#        16095
#        33482
#        50807
#        68492
#        82989
#        99429
#        114987
#        130882
#        147415
#        165980
#        184737
#        199415
#
# Disc length: 2929 seconds
#
# Revision: 20
# Processed by: cddbd v1.5.2PL0 Copyright (c) Steve Scherf et al.
# Submitted via: ExactAudioCopy v1.0b3
#
DISCID=a90b6f0d
DTITLE=Swift, Taylor - 1989
DYEAR=2014
DGENRE=Pop
TTITLE0=Welcome To New York
TTITLE1=Blank Space
TTITLE2=Style
TTITLE3=Out Of The Woods
TTITLE4=All You Had To Do Was Stay
TTITLE5=Shake It Off
TTITLE6=I Wish You Would
TTITLE7=Bad Blood
TTITLE8=Wildest Dreams
TTITLE9=How You Get The Girl
TTITLE10=This Love
TTITLE11=I Know Places
TTITLE12=Clean
EXTD=YEAR: 2014
EXTT0=
EXTT1=
EXTT2=
EXTT3=
EXTT4=
EXTT5=
EXTT6=
EXTT7=
EXTT8=
EXTT9=
EXTT10=
EXTT11=
EXTT12=
PLAYORDER=
